<svg xmlns="http://www.w3.org/2000/svg" viewBox="0 0 500 290" font-family="'Noto Sans CJK TC','PingFang TC','Microsoft JhengHei',sans-serif">
  <rect width="500" height="290" fill="#ffffff"/>
  <text x="250" y="28" text-anchor="middle" font-size="17" font-weight="700" fill="#1F2937">高斯分布:離中心越遠,機率越低</text>

  <!-- axes -->
  <line x1="40" y1="220" x2="470" y2="220" stroke="#9CA3AF" stroke-width="1.5"/>
  <line x1="250" y1="50" x2="250" y2="232" stroke="#E5E7EB" stroke-width="1" stroke-dasharray="4 3"/>
  <text x="476" y="224" font-size="12" fill="#6B7280">值</text>
  <text x="46" y="60" font-size="12" fill="#6B7280">機率密度</text>

  <!-- bell area -->
  <path d="M40.0,219.9 L47.0,219.8 L54.0,219.7 L61.0,219.5 L68.0,219.3 L75.0,219.0 L82.0,218.4 L89.0,217.7 L96.0,216.7 L103.0,215.4 L110.0,213.5 L117.0,211.1 L124.0,208.0 L131.0,204.1 L138.0,199.2 L145.0,193.3 L152.0,186.3 L159.0,178.0 L166.0,168.6 L173.0,158.1 L180.0,146.6 L187.0,134.4 L194.0,121.7 L201.0,109.0 L208.0,96.7 L215.0,85.2 L222.0,75.1 L229.0,66.6 L236.0,60.3 L243.0,56.3 L250.0,55.0 L257.0,56.3 L264.0,60.3 L271.0,66.6 L278.0,75.1 L285.0,85.2 L292.0,96.7 L299.0,109.0 L306.0,121.7 L313.0,134.4 L320.0,146.6 L327.0,158.1 L334.0,168.6 L341.0,178.0 L348.0,186.3 L355.0,193.3 L362.0,199.2 L369.0,204.1 L376.0,208.0 L383.0,211.1 L390.0,213.5 L397.0,215.4 L404.0,216.7 L411.0,217.7 L418.0,218.4 L425.0,219.0 L432.0,219.3 L439.0,219.5 L446.0,219.7 L453.0,219.8 L460.0,219.9 L460,220 L40,220 Z" fill="#DBEAFE" opacity="0.7"/>
  <path d="M40.0,219.9 L47.0,219.8 L54.0,219.7 L61.0,219.5 L68.0,219.3 L75.0,219.0 L82.0,218.4 L89.0,217.7 L96.0,216.7 L103.0,215.4 L110.0,213.5 L117.0,211.1 L124.0,208.0 L131.0,204.1 L138.0,199.2 L145.0,193.3 L152.0,186.3 L159.0,178.0 L166.0,168.6 L173.0,158.1 L180.0,146.6 L187.0,134.4 L194.0,121.7 L201.0,109.0 L208.0,96.7 L215.0,85.2 L222.0,75.1 L229.0,66.6 L236.0,60.3 L243.0,56.3 L250.0,55.0 L257.0,56.3 L264.0,60.3 L271.0,66.6 L278.0,75.1 L285.0,85.2 L292.0,96.7 L299.0,109.0 L306.0,121.7 L313.0,134.4 L320.0,146.6 L327.0,158.1 L334.0,168.6 L341.0,178.0 L348.0,186.3 L355.0,193.3 L362.0,199.2 L369.0,204.1 L376.0,208.0 L383.0,211.1 L390.0,213.5 L397.0,215.4 L404.0,216.7 L411.0,217.7 L418.0,218.4 L425.0,219.0 L432.0,219.3 L439.0,219.5 L446.0,219.7 L453.0,219.8 L460.0,219.9" fill="none" stroke="#2563EB" stroke-width="2.5"/>

  <!-- mu -->
  <circle cx="250" cy="55" r="4" fill="#2563EB"/>
  <text x="250" y="245" text-anchor="middle" font-size="14" font-weight="700" fill="#1E40AF">μ(平均值)</text>
  <text x="250" y="262" text-anchor="middle" font-size="11.5" fill="#6B7280">峰在哪 = 最可能的值</text>

  <!-- sigma arrows at +-1 sigma (195,305) -->
  <line x1="195" y1="140" x2="305" y2="140" stroke="#F97316" stroke-width="1.5"/>
  <line x1="195" y1="135" x2="195" y2="145" stroke="#F97316" stroke-width="1.5"/>
  <line x1="305" y1="135" x2="305" y2="145" stroke="#F97316" stroke-width="1.5"/>
  <text x="250" y="132" text-anchor="middle" font-size="13" font-weight="700" fill="#9A3412">σ(標準差)= 鐘有多胖</text>

  <text x="250" y="282" text-anchor="middle" font-size="11.5" fill="#9CA3AF">式子的核心是 e^(−距離²):離中心越遠,機率以「距離平方」急速但平滑衰減</text>
</svg>
