<svg xmlns="http://www.w3.org/2000/svg" viewBox="0 0 760 430" font-family="'Noto Sans CJK TC','PingFang TC','Microsoft JhengHei',sans-serif">
<rect width="760" height="430" fill="#ffffff"/>
<text x="380" y="30" text-anchor="middle" font-size="17" font-weight="700" fill="#1F2937">模擬一顆 LiDAR 要算什麼:每個方向到最近表面的距離</text>
<text x="380" y="50" text-anchor="middle" font-size="11.5" fill="#6B7280">沿「這個方向」這條射線,第一個碰到的表面有多遠?——這個問題重複 N 次(每個角度一條 ray)</text>
<text x="60" y="78" font-size="12" font-weight="700" fill="#374151">場景(俯視)</text>
<rect x="60" y="90" width="370" height="280" fill="#F9FAFB" stroke="#9CA3AF" stroke-width="2"/>
<text x="66" y="362" font-size="9.5" fill="#6B7280">牆</text>
<rect x="320" y="140" width="65" height="55" fill="#E5E7EB" stroke="#6B7280" stroke-width="1.5"/>
<text x="352" y="172" text-anchor="middle" font-size="9" fill="#6B7280">障礙</text>
<line x1="235" y1="235" x2="430.0" y2="235.0" stroke="#DC2626" stroke-width="2"/>
<circle cx="430.0" cy="235.0" r="2.6" fill="#DC2626"/>
<line x1="235" y1="235" x2="430.0" y2="287.3" stroke="#93C5FD" stroke-width="1"/>
<circle cx="430.0" cy="287.3" r="2.6" fill="#93C5FD"/>
<line x1="235" y1="235" x2="430.0" y2="347.6" stroke="#93C5FD" stroke-width="1"/>
<circle cx="430.0" cy="347.6" r="2.6" fill="#93C5FD"/>
<line x1="235" y1="235" x2="370.0" y2="370.0" stroke="#93C5FD" stroke-width="1"/>
<circle cx="370.0" cy="370.0" r="2.6" fill="#93C5FD"/>
<line x1="235" y1="235" x2="312.9" y2="370.0" stroke="#93C5FD" stroke-width="1"/>
<circle cx="312.9" cy="370.0" r="2.6" fill="#93C5FD"/>
<line x1="235" y1="235" x2="271.2" y2="370.0" stroke="#93C5FD" stroke-width="1"/>
<circle cx="271.2" cy="370.0" r="2.6" fill="#93C5FD"/>
<line x1="235" y1="235" x2="235.0" y2="370.0" stroke="#93C5FD" stroke-width="1"/>
<circle cx="235.0" cy="370.0" r="2.6" fill="#93C5FD"/>
<line x1="235" y1="235" x2="198.8" y2="370.0" stroke="#93C5FD" stroke-width="1"/>
<circle cx="198.8" cy="370.0" r="2.6" fill="#93C5FD"/>
<line x1="235" y1="235" x2="157.1" y2="370.0" stroke="#93C5FD" stroke-width="1"/>
<circle cx="157.1" cy="370.0" r="2.6" fill="#93C5FD"/>
<line x1="235" y1="235" x2="100.0" y2="370.0" stroke="#93C5FD" stroke-width="1"/>
<circle cx="100.0" cy="370.0" r="2.6" fill="#93C5FD"/>
<line x1="235" y1="235" x2="60.0" y2="336.0" stroke="#93C5FD" stroke-width="1"/>
<circle cx="60.0" cy="336.0" r="2.6" fill="#93C5FD"/>
<line x1="235" y1="235" x2="60.0" y2="281.9" stroke="#93C5FD" stroke-width="1"/>
<circle cx="60.0" cy="281.9" r="2.6" fill="#93C5FD"/>
<line x1="235" y1="235" x2="60.0" y2="235.0" stroke="#93C5FD" stroke-width="1"/>
<circle cx="60.0" cy="235.0" r="2.6" fill="#93C5FD"/>
<line x1="235" y1="235" x2="60.0" y2="188.1" stroke="#93C5FD" stroke-width="1"/>
<circle cx="60.0" cy="188.1" r="2.6" fill="#93C5FD"/>
<line x1="235" y1="235" x2="60.0" y2="134.0" stroke="#93C5FD" stroke-width="1"/>
<circle cx="60.0" cy="134.0" r="2.6" fill="#93C5FD"/>
<line x1="235" y1="235" x2="90.0" y2="90.0" stroke="#93C5FD" stroke-width="1"/>
<circle cx="90.0" cy="90.0" r="2.6" fill="#93C5FD"/>
<line x1="235" y1="235" x2="151.3" y2="90.0" stroke="#93C5FD" stroke-width="1"/>
<circle cx="151.3" cy="90.0" r="2.6" fill="#93C5FD"/>
<line x1="235" y1="235" x2="196.1" y2="90.0" stroke="#93C5FD" stroke-width="1"/>
<circle cx="196.1" cy="90.0" r="2.6" fill="#93C5FD"/>
<line x1="235" y1="235" x2="235.0" y2="90.0" stroke="#93C5FD" stroke-width="1"/>
<circle cx="235.0" cy="90.0" r="2.6" fill="#93C5FD"/>
<line x1="235" y1="235" x2="273.9" y2="90.0" stroke="#93C5FD" stroke-width="1"/>
<circle cx="273.9" cy="90.0" r="2.6" fill="#93C5FD"/>
<line x1="235" y1="235" x2="318.7" y2="90.0" stroke="#EA580C" stroke-width="2"/>
<circle cx="318.7" cy="90.0" r="2.6" fill="#EA580C"/>
<line x1="235" y1="235" x2="320.0" y2="150.0" stroke="#93C5FD" stroke-width="1"/>
<circle cx="320.0" cy="150.0" r="2.6" fill="#93C5FD"/>
<line x1="235" y1="235" x2="320.0" y2="185.9" stroke="#93C5FD" stroke-width="1"/>
<circle cx="320.0" cy="185.9" r="2.6" fill="#93C5FD"/>
<line x1="235" y1="235" x2="384.3" y2="195.0" stroke="#93C5FD" stroke-width="1"/>
<circle cx="384.3" cy="195.0" r="2.6" fill="#93C5FD"/>
<circle cx="235" cy="235" r="6" fill="#1F2937"/>
<text x="235" y="257" text-anchor="middle" font-size="10" font-weight="700" fill="#1F2937">LiDAR</text>
<text x="332" y="230" font-size="10" font-weight="700" fill="#DC2626">r₁</text>
<text x="277" y="158" font-size="10" font-weight="700" fill="#EA580C">r₂</text>
<path d="M 269 235 A 34 34 0 0 0 252 206" fill="none" stroke="#9CA3AF" stroke-width="1.2"/>
<text x="279" y="221" font-size="10" fill="#6B7280">θ</text>
<text x="470" y="78" font-size="12" font-weight="700" fill="#374151">輸出:一圈距離值(LaserScan)</text>
<text x="610" y="98" text-anchor="middle" font-size="9.5" fill="#6B7280">每個角度一個距離 → 連起來就是「掃描輪廓」</text>
<polygon points="691.9,250.0 691.9,271.9 691.9,297.3 666.7,306.7 642.7,306.7 625.2,306.7 610.0,306.7 594.8,306.7 577.3,306.7 553.3,306.7 536.5,292.4 536.5,269.7 536.5,250.0 536.5,230.3 536.5,207.6 549.1,189.1 574.8,189.1 593.7,189.1 610.0,189.1 626.3,189.1 645.2,189.1 645.7,214.3 645.7,229.4 672.7,233.2" fill="#DBEAFE" fill-opacity="0.5" stroke="#2563EB" stroke-width="1.6"/>
<circle cx="691.9" cy="250.0" r="2.2" fill="#2563EB"/>
<circle cx="691.9" cy="271.9" r="2.2" fill="#2563EB"/>
<circle cx="691.9" cy="297.3" r="2.2" fill="#2563EB"/>
<circle cx="666.7" cy="306.7" r="2.2" fill="#2563EB"/>
<circle cx="642.7" cy="306.7" r="2.2" fill="#2563EB"/>
<circle cx="625.2" cy="306.7" r="2.2" fill="#2563EB"/>
<circle cx="610.0" cy="306.7" r="2.2" fill="#2563EB"/>
<circle cx="594.8" cy="306.7" r="2.2" fill="#2563EB"/>
<circle cx="577.3" cy="306.7" r="2.2" fill="#2563EB"/>
<circle cx="553.3" cy="306.7" r="2.2" fill="#2563EB"/>
<circle cx="536.5" cy="292.4" r="2.2" fill="#2563EB"/>
<circle cx="536.5" cy="269.7" r="2.2" fill="#2563EB"/>
<circle cx="536.5" cy="250.0" r="2.2" fill="#2563EB"/>
<circle cx="536.5" cy="230.3" r="2.2" fill="#2563EB"/>
<circle cx="536.5" cy="207.6" r="2.2" fill="#2563EB"/>
<circle cx="549.1" cy="189.1" r="2.2" fill="#2563EB"/>
<circle cx="574.8" cy="189.1" r="2.2" fill="#2563EB"/>
<circle cx="593.7" cy="189.1" r="2.2" fill="#2563EB"/>
<circle cx="610.0" cy="189.1" r="2.2" fill="#2563EB"/>
<circle cx="626.3" cy="189.1" r="2.2" fill="#2563EB"/>
<circle cx="645.2" cy="189.1" r="2.2" fill="#2563EB"/>
<circle cx="645.7" cy="214.3" r="2.2" fill="#2563EB"/>
<circle cx="645.7" cy="229.4" r="2.2" fill="#2563EB"/>
<circle cx="672.7" cy="233.2" r="2.2" fill="#2563EB"/>
<circle cx="610" cy="250" r="4" fill="#1F2937"/>
<text x="610" y="406" text-anchor="middle" font-size="10.5" fill="#374151">N 個距離 = 一筆 LaserScan;模擬器要做的,就是高效算出這 N 個距離</text>
</svg>
