<svg xmlns="http://www.w3.org/2000/svg" viewBox="0 0 780 250" font-family="'Noto Sans CJK TC','PingFang TC','Microsoft JhengHei',sans-serif">
  <rect width="780" height="250" fill="#ffffff"/>
  <text x="390" y="26" text-anchor="middle" font-size="17" font-weight="700" fill="#1F2937">高斯的兩個超能力:都還是高斯,但一個變窄、一個變胖</text>

  <!-- LEFT: multiply -->
  <g>
    <text x="195" y="58" text-anchor="middle" font-size="15" font-weight="700" fill="#065F46">相乘 ×  =  融合(更確定)</text>
    <line x1="30" y1="180" x2="360" y2="180" stroke="#D1D5DB" stroke-width="1.2"/>
    <path d="M30.0,177.3 L35.2,176.5 L40.3,175.3 L45.5,173.9 L50.6,172.2 L55.8,170.2 L60.9,167.7 L66.1,164.8 L71.2,161.5 L76.4,157.8 L81.6,153.5 L86.7,148.9 L91.9,144.0 L97.0,138.8 L102.2,133.4 L107.3,128.0 L112.5,122.6 L117.7,117.5 L122.8,112.8 L128.0,108.7 L133.1,105.2 L138.3,102.6 L143.4,100.8 L148.6,100.0 L153.8,100.3 L158.9,101.5 L164.1,103.7 L169.2,106.7 L174.4,110.5 L179.5,114.9 L184.7,119.8 L189.8,125.0 L195.0,130.4 L200.2,135.9 L205.3,141.2 L210.5,146.3 L215.6,151.1 L220.8,155.5 L225.9,159.5 L231.1,163.1 L236.2,166.2 L241.4,168.9 L246.6,171.2 L251.7,173.1 L256.9,174.6 L262.0,175.9 L267.2,176.9 L272.3,177.7 L277.5,178.3 L282.7,178.7 L287.8,179.1 L293.0,179.4 L298.1,179.6 L303.3,179.7 L308.4,179.8 L313.6,179.9 L318.8,179.9 L323.9,179.9 L329.1,180.0" fill="none" stroke="#9CA3AF" stroke-width="1.5" stroke-dasharray="4 3"/>
    <path d="M30.0,180.0 L40.3,180.0 L50.6,180.0 L60.9,179.9 L71.2,179.8 L81.6,179.6 L91.9,179.1 L102.2,178.3 L112.5,176.9 L122.8,174.7 L133.1,171.3 L143.4,166.4 L153.8,159.7 L164.1,151.4 L174.4,141.5 L184.7,130.8 L195.0,120.1 L205.3,110.7 L215.6,103.8 L225.9,100.3 L236.2,100.7 L246.6,105.0 L256.9,112.6 L267.2,122.3 L277.5,133.1 L287.8,143.7 L298.1,153.3 L308.4,161.3 L318.8,167.6 L329.1,172.1 L339.4,175.3 L349.7,177.3 L360.0,178.5" fill="none" stroke="#9CA3AF" stroke-width="1.5" stroke-dasharray="4 3"/>
    <path d="M30.0,180.0 L91.9,179.9 L102.2,179.6 L112.5,178.5 L122.8,175.4 L133.1,168.1 L143.4,153.8 L153.8,130.8 L164.1,101.0 L174.4,71.5 L179.5,60.1 L184.7,52.7 L189.8,50.0 L195.0,52.4 L200.2,59.5 L205.3,70.7 L215.6,100.0 L225.9,130.0 L236.2,153.3 L246.6,167.8 L256.9,175.2 L267.2,178.4 L277.5,179.5 L287.8,179.9 L298.1,180.0 L360.0,180.0" fill="#D1FAE5" opacity="0.6"/>
    <path d="M30.0,180.0 L91.9,179.9 L102.2,179.6 L112.5,178.5 L122.8,175.4 L133.1,168.1 L143.4,153.8 L153.8,130.8 L164.1,101.0 L174.4,71.5 L179.5,60.1 L184.7,52.7 L189.8,50.0 L195.0,52.4 L200.2,59.5 L205.3,70.7 L215.6,100.0 L225.9,130.0 L236.2,153.3 L246.6,167.8 L256.9,175.2 L267.2,178.4 L277.5,179.5 L287.8,179.9 L298.1,180.0" fill="none" stroke="#059669" stroke-width="2.8"/>
    <text x="195" y="208" text-anchor="middle" font-size="12.5" fill="#065F46">兩個意見取交集 → 更尖更確定</text>
    <text x="195" y="228" text-anchor="middle" font-size="11.5" fill="#6B7280">(EKF 融合兩個感測器就是這個)</text>
  </g>

  <!-- divider -->
  <line x1="390" y1="45" x2="390" y2="235" stroke="#E5E7EB" stroke-width="1"/>

  <!-- RIGHT: convolve -->
  <g transform="translate(390,0)">
    <text x="195" y="58" text-anchor="middle" font-size="15" font-weight="700" fill="#9A3412">卷積 ⊛  =  擴散(更模糊)</text>
    <line x1="30" y1="180" x2="360" y2="180" stroke="#D1D5DB" stroke-width="1.2"/>
    <path d="M30.0,177.3 L60.9,167.7 L91.9,144.0 L122.8,112.8 L148.6,100.0 L174.4,110.5 L195.0,130.4 L225.9,159.5 L256.9,174.6 L287.8,179.1 L329.1,180.0" fill="none" stroke="#9CA3AF" stroke-width="1.5" stroke-dasharray="4 3"/>
    <path d="M30.0,180.0 L71.2,179.8 L102.2,178.3 L128.0,173.2 L153.8,159.7 L179.5,136.2 L205.3,110.7 L225.9,100.3 L251.7,108.4 L277.5,133.1 L303.3,157.5 L334.2,173.9 L360.0,178.5" fill="none" stroke="#9CA3AF" stroke-width="1.5" stroke-dasharray="4 3"/>
    <path d="M30.0,174.4 L45.5,171.4 L60.9,167.3 L76.4,162.1 L91.9,155.9 L107.3,148.9 L122.8,141.6 L138.3,134.6 L153.8,128.6 L169.2,124.2 L184.7,122.1 L195.0,122.1 L210.5,124.2 L225.9,128.5 L241.4,134.4 L256.9,141.4 L272.3,148.8 L287.8,155.8 L303.3,162.0 L318.8,167.2 L334.2,171.3 L349.7,174.3 L360.0,175.9 L360,180 L30,180 Z" fill="#FFEDD5" opacity="0.6"/>
    <path d="M30.0,174.4 L45.5,171.4 L60.9,167.3 L76.4,162.1 L91.9,155.9 L107.3,148.9 L122.8,141.6 L138.3,134.6 L153.8,128.6 L169.2,124.2 L184.7,122.1 L195.0,122.1 L210.5,124.2 L225.9,128.5 L241.4,134.4 L256.9,141.4 L272.3,148.8 L287.8,155.8 L303.3,162.0 L318.8,167.2 L334.2,171.3 L349.7,174.3 L360.0,175.9" fill="none" stroke="#EA580C" stroke-width="2.8"/>
    <text x="195" y="208" text-anchor="middle" font-size="12.5" fill="#9A3412">把不確定性抹開 → 更胖更模糊</text>
    <text x="195" y="228" text-anchor="middle" font-size="11.5" fill="#6B7280">(影像高斯模糊、誤差傳遞就是這個)</text>
  </g>
</svg>
